Coordinates
version=1
nRows=32
nColumns=22
inDegrees=yes

Units are S.I. units (second, meters, Newtons, ...)
If the header above contains a line with 'inDegrees', this indicates whether rotational values are in degrees (yes) or radians (no).

endheader
time	pelvis_tilt	pelvis_list	pelvis_rotation	pelvis_tx	pelvis_ty	pelvis_tz	hip_flexion_r	hip_adduction_r	hip_rotation_r	knee_angle_r	ankle_angle_r	subtalar_angle_r	hip_flexion_l	hip_adduction_l	hip_rotation_l	knee_angle_l	ankle_angle_l	subtalar_angle_l	lumbar_extension	lumbar_bending	lumbar_rotation
      1.30000000	     -2.69817697	     -1.83993194	      0.71619914	     -0.71028431	      0.92917346	     -0.72590698	      3.86612250	     -1.56610933	    -10.28745748	    -19.49272163	     16.84029952	      1.07766914	      5.74098180	     -0.58540449	     -6.95445299	    -22.50637607	     17.87447775	     -3.51933346	     -7.78386749	     -2.25996445	     -3.97039532
      1.31000000	     -2.70851444	     -1.57702770	      0.70564165	     -0.70877269	      0.92852632	     -0.72687233	      4.45815626	     -2.01587832	    -10.11529891	    -20.77414214	     17.10116446	      1.15682237	      5.59896379	     -0.22553858	     -6.98878110	    -22.43160429	     17.98316351	     -3.57642694	     -7.90495521	     -2.54273236	     -4.09856652
      1.32000000	     -2.73521002	     -1.32579854	      0.70472662	     -0.70727742	      0.92785043	     -0.72785175	      5.11609073	     -2.45411024	     -9.91029229	    -22.14166239	     17.27822597	      1.24863021	      5.48766910	      0.11716283	     -7.03396669	    -22.37702203	     18.09800825	     -3.63502515	     -8.01755036	     -2.80926860	     -4.25376977
      1.33000000	     -2.72280627	     -1.08225262	      0.70692037	     -0.70578234	      0.92725845	     -0.72886916	      5.77258325	     -2.88149665	     -9.65002891	    -23.57907613	     17.40873338	      1.31678592	      5.31786689	      0.45790272	     -7.05677204	    -22.28925041	     18.20061527	     -3.64692381	     -8.19260669	     -3.05410143	     -4.41028805
      1.34000000	     -2.75736223	     -0.86846882	      0.70515225	     -0.70432121	      0.92661217	     -0.72984681	      6.54843074	     -3.27582699	     -9.35885148	    -25.13014108	     17.40634907	      1.42218362	      5.23001006	      0.75394548	     -7.11873750	    -22.25723932	     18.30723513	     -3.68552880	     -8.32065350	     -3.26833464	     -4.59508757
      1.35000000	     -2.74508374	     -0.66759561	      0.67622359	     -0.70281850	      0.92609153	     -0.73077773	      7.32954905	     -3.65000938	     -9.01536245	    -26.77036937	     17.31710579	      1.49347513	      5.06111238	      1.04270076	     -7.15306322	    -22.17611816	     18.38960207	     -3.69475598	     -8.51013644	     -3.46689516	     -4.74131596
      1.36000000	     -2.78566949	     -0.50683203	      0.62939556	     -0.70134020	      0.92552100	     -0.73164795	      8.24880636	     -3.97898071	     -8.64211095	    -28.53612969	     17.07709961	      1.61694604	      4.98700081	      1.27259158	     -7.25152939	    -22.16506007	     18.49158849	     -3.73526813	     -8.64470556	     -3.61801129	     -4.90890033
      1.37000000	     -2.79815818	     -0.36464960	      0.54523692	     -0.69981215	      0.92505128	     -0.73244542	      9.20695933	     -4.27880099	     -8.21516093	    -30.40458874	     16.70446739	      1.71683791	      4.86528122	      1.48424818	     -7.35196844	    -22.13047148	     18.57466691	     -3.76800960	     -8.81719282	     -3.74764107	     -5.03749091
      1.38000000	     -2.78445485	     -0.23971279	      0.41897852	     -0.69822614	      0.92468608	     -0.73314443	     10.20730790	     -4.54233589	     -7.71960597	    -32.37104557	     16.18225322	      1.76714881	      4.69477950	      1.67833682	     -7.45776676	    -22.06559286	     18.61694896	     -3.79161056	     -9.02240297	     -3.86036296	     -5.12425380
      1.39000000	     -2.78740707	     -0.14482202	      0.27242724	     -0.69659279	      0.92431751	     -0.73375847	     11.29666655	     -4.75948324	     -7.19763839	    -34.43905871	     15.51476163	      1.79740457	      4.55926364	      1.82976998	     -7.59434944	    -22.04168777	     18.68660002	     -3.82180202	     -9.20735126	     -3.94181095	     -5.21973815
      1.40000000	     -2.81347010	     -0.07287125	      0.12331773	     -0.69493467	      0.92391458	     -0.73431608	     12.47611318	     -4.93590777	     -6.66197648	    -36.59606472	     14.75527652	      1.78147356	      4.47352123	      1.94529730	     -7.76525999	    -22.06671428	     18.78876910	     -3.86113859	     -9.37192740	     -3.99489669	     -5.35095953
      1.41000000	     -2.80887818	     -0.01827933	     -0.03821999	     -0.69319891	      0.92357929	     -0.73479331	     13.66313993	     -5.06611172	     -6.10221532	    -38.78860528	     13.89278022	      1.62249099	      4.34251490	      2.04240968	     -7.91276726	    -22.07830719	     18.86894623	     -3.89078758	     -9.57414272	     -4.03111340	     -5.46586748
      1.42000000	     -2.80082836	      0.01885142	     -0.19166419	     -0.69139567	      0.92323022	     -0.73522137	     14.87723260	     -5.15748094	     -5.56483483	    -40.99672967	     13.00016282	      1.29910712	      4.21797270	      2.11684657	     -8.04704178	    -22.11614701	     18.96716619	     -3.91672228	     -9.78415663	     -4.04614461	     -5.59875913
      1.43000000	     -2.77900242	      0.04383139	     -0.32640233	     -0.68952105	      0.92287347	     -0.73558711	     16.08771669	     -5.21169459	     -5.05688797	    -43.17515603	     12.16080338	      0.78540719	      4.09040142	      2.16963655	     -8.17228564	    -22.18285821	     19.07172749	     -3.93869686	    -10.01383403	     -4.05049773	     -5.76489315
      1.44000000	     -2.72218856	      0.05391325	     -0.45473272	     -0.68754323	      0.92255763	     -0.73587850	     17.25105517	     -5.22353074	     -4.58144947	    -45.26987487	     11.37729007	      0.16415281	      3.91563612	      2.20761137	     -8.25091858	    -22.24289482	     19.15294803	     -3.95120864	    -10.28520601	     -4.03981564	     -5.93419871
      1.45000000	     -2.68268348	      0.05684538	     -0.53962426	     -0.68548361	      0.92213121	     -0.73614364	     18.41555264	     -5.23113831	     -4.22745185	    -47.26459791	     10.81516160	     -0.62993553	      3.80096270	      2.21828891	     -8.35941565	    -22.38970629	     19.31287511	     -3.96326408	    -10.53603984	     -4.01602760	     -6.20621092
      1.46000000	     -2.61190981	      0.03649900	     -0.60804730	     -0.68332839	      0.92173248	     -0.73633394	     19.50529902	     -5.19981960	     -3.94875443	    -49.08316534	     10.39333330	     -1.33749596	      3.65449442	      2.20446627	     -8.40336889	    -22.55178440	     19.46717508	     -3.96666033	    -10.82665002	     -3.96839657	     -6.47691595
      1.47000000	     -2.53907854	     -0.00663399	     -0.65859315	     -0.68108421	      0.92130510	     -0.73644830	     20.54789075	     -5.13985642	     -3.76523483	    -50.69701135	     10.14497017	     -1.86614699	      3.51907409	      2.15844300	     -8.42130483	    -22.75044304	     19.63837507	     -3.95865467	    -11.12117726	     -3.89540290	     -6.77538561
      1.48000000	     -2.46804894	     -0.07436104	     -0.69132446	     -0.67875723	      0.92085347	     -0.73649228	     21.53958418	     -5.05337017	     -3.67999937	    -52.06938339	     10.05095820	     -2.13949809	      3.39995401	      2.07770984	     -8.42152297	    -22.98646917	     19.84079986	     -3.93090697	    -11.41600457	     -3.79399348	     -7.09719138
      1.49000000	     -2.40612922	     -0.17541855	     -0.71433595	     -0.67633650	      0.92038223	     -0.73645552	     22.48012922	     -4.93012300	     -3.68900157	    -53.16768675	     10.09783441	     -2.14890053	      3.29961394	      1.95510365	     -8.39680060	    -23.25362230	     20.07808006	     -3.87572622	    -11.70230393	     -3.65333605	     -7.42393816
      1.50000000	     -2.37577610	     -0.30718177	     -0.72808082	     -0.67385348	      0.91986919	     -0.73633667	     23.39823838	     -4.77685098	     -3.79060608	    -53.98118891	     10.22391382	     -1.90723091	      3.25307994	      1.78424132	     -8.39320429	    -23.56575787	     20.32100655	     -3.78862387	    -11.95684692	     -3.47929778	     -7.77460199
      1.51000000	     -2.37271427	     -0.46941163	     -0.74604900	     -0.67128279	      0.91933185	     -0.73613464	     24.28843642	     -4.58968839	     -3.96420204	    -54.50190622	     10.35313934	     -1.40636693	      3.23549954	      1.57429591	     -8.38877559	    -23.89034842	     20.57568896	     -3.66725628	    -12.17953430	     -3.26912921	     -8.11599266
      1.52000000	     -2.38979531	     -0.62917477	     -0.78742655	     -0.66861063	      0.91877790	     -0.73585219	     25.15827146	     -4.40902476	     -4.19244224	    -54.74869342	     10.39849577	     -0.59739934	      3.22502448	      1.36055313	     -8.43126628	    -24.20373471	     20.79558743	     -3.52806181	    -12.37539818	     -3.06259822	     -8.44293586
      1.53000000	     -2.41896390	     -0.82356339	     -0.83989711	     -0.66583770	      0.91822485	     -0.73548322	     25.97702378	     -4.18441747	     -4.47432107	    -54.69982340	     10.44416196	      0.28031300	      3.21120445	      1.11199267	     -8.44657472	    -24.50661408	     21.04360154	     -3.44829876	    -12.55710970	     -2.81821744	     -8.74193468
      1.54000000	     -2.46214445	     -1.02645472	     -0.91933653	     -0.66295976	      0.91766536	     -0.73503228	     26.75730755	     -3.93901086	     -4.77427106	    -54.37587897	     10.44361344	      1.25046073	      3.18270683	      0.85817152	     -8.46535381	    -24.77534717	     21.26818265	     -3.45145731	    -12.71980601	     -2.56326483	     -9.02098913
      1.55000000	     -2.51273448	     -1.24011096	     -1.02559358	     -0.65994029	      0.91711457	     -0.73450361	     27.48589483	     -3.67388271	     -5.09911350	    -53.78474514	     10.39182513	      2.23139368	      3.12252539	      0.59816064	     -8.48621675	    -24.99650324	     21.47337075	     -3.53731683	    -12.86450672	     -2.29656418	     -9.26816175
      1.56000000	     -2.55667316	     -1.45469433	     -1.15526948	     -0.65678396	      0.91658034	     -0.73390217	     28.15236513	     -3.39804181	     -5.44024355	    -52.95435945	     10.33294766	      3.14070096	      3.01815871	      0.33937340	     -8.52984067	    -25.17354028	     21.65898772	     -3.67368374	    -13.01313833	     -2.02796587	     -9.48166860
      1.57000000	     -2.58580768	     -1.66813616	     -1.31476714	     -0.65343601	      0.91605870	     -0.73321743	     28.74662263	     -3.12207692	     -5.81164998	    -51.90627051	     10.28308843	      3.84774475	      2.85751284	      0.07891561	     -8.62033521	    -25.31161831	     21.85079754	     -3.80650669	    -13.16007264	     -1.76426146	     -9.67371434
      1.58000000	     -2.60816633	     -1.85347489	     -1.50842046	     -0.64994320	      0.91556020	     -0.73243692	     29.28187791	     -2.84044935	     -6.12476094	    -50.65418281	     10.25440793	      4.43580856	      2.62907110	     -0.13976669	     -8.70821520	    -25.35939278	     22.01247990	     -3.93193604	    -13.31105108	     -1.53513804	     -9.84051016
      1.59000000	     -2.62936088	     -2.03205047	     -1.72165924	     -0.64626297	      0.91502484	     -0.73156380	     29.76393188	     -2.56527818	     -6.47229966	    -49.23532457	     10.28668002	      4.66907407	      2.37096554	     -0.36450637	     -8.87799337	    -25.38717542	     22.19613344	     -3.99311812	    -13.44615263	     -1.31891664	     -9.99380529
      1.60000000	     -2.63071891	     -2.18989677	     -1.96354404	     -0.64241416	      0.91450206	     -0.73060301	     30.17766193	     -2.28986856	     -6.78878781	    -47.66775873	     10.27248178	      4.77933030	      2.03762726	     -0.55986944	     -9.06729293	    -25.34229256	     22.40398009	     -4.02725208	    -13.59480126	     -1.12625252	    -10.14416475
      1.61000000	     -2.62329706	     -2.32846640	     -2.22594306	     -0.63840225	      0.91395411	     -0.72954060	     30.53948165	     -2.01874010	     -7.09495477	    -45.97980362	     10.20403353	      4.73642836	      1.65300575	     -0.73725615	     -9.29950545	    -25.24875869	     22.62403616	     -4.02600041	    -13.74436932	     -0.96084163	    -10.29038166
